<svg xmlns="http://www.w3.org/2000/svg" xmlns:xlink="http://www.w3.org/1999/xlink" width="2000" zoomAndPan="magnify" viewBox="0 0 1500 1499.999933" height="2000" preserveAspectRatio="xMidYMid meet" version="1.0"><defs><clipPath id="9eac9b4bba"><path d="M 408.226562 443.976562 L 1386.121094 443.976562 L 1386.121094 1421.871094 L 408.226562 1421.871094 Z M 408.226562 443.976562 " clip-rule="nonzero"/></clipPath><clipPath id="749b193129"><path d="M 462.976562 443.976562 L 1331.371094 443.976562 C 1345.894531 443.976562 1359.820312 449.746094 1370.085938 460.015625 C 1380.355469 470.28125 1386.121094 484.207031 1386.121094 498.726562 L 1386.121094 1367.121094 C 1386.121094 1381.644531 1380.355469 1395.570312 1370.085938 1405.835938 C 1359.820312 1416.105469 1345.894531 1421.871094 1331.371094 1421.871094 L 462.976562 1421.871094 C 448.457031 1421.871094 434.53125 1416.105469 424.265625 1405.835938 C 413.996094 1395.570312 408.226562 1381.644531 408.226562 1367.121094 L 408.226562 498.726562 C 408.226562 484.207031 413.996094 470.28125 424.265625 460.015625 C 434.53125 449.746094 448.457031 443.976562 462.976562 443.976562 Z M 462.976562 443.976562 " clip-rule="nonzero"/></clipPath><clipPath id="4016d0dc5d"><path d="M 0.226562 0.976562 L 978.121094 0.976562 L 978.121094 978.871094 L 0.226562 978.871094 Z M 0.226562 0.976562 " clip-rule="nonzero"/></clipPath><clipPath id="37ababee3d"><path d="M 54.976562 0.976562 L 923.371094 0.976562 C 937.894531 0.976562 951.820312 6.746094 962.085938 17.015625 C 972.355469 27.28125 978.121094 41.207031 978.121094 55.726562 L 978.121094 924.121094 C 978.121094 938.644531 972.355469 952.570312 962.085938 962.835938 C 951.820312 973.105469 937.894531 978.871094 923.371094 978.871094 L 54.976562 978.871094 C 40.457031 978.871094 26.53125 973.105469 16.265625 962.835938 C 5.996094 952.570312 0.226562 938.644531 0.226562 924.121094 L 0.226562 55.726562 C 0.226562 41.207031 5.996094 27.28125 16.265625 17.015625 C 26.53125 6.746094 40.457031 0.976562 54.976562 0.976562 Z M 54.976562 0.976562 " clip-rule="nonzero"/></clipPath><clipPath id="6250248c9e"><rect x="0" width="979" y="0" height="979"/></clipPath><clipPath id="43941de312"><path d="M 635.164062 670.914062 L 1159.1875 670.914062 L 1159.1875 1194.9375 L 635.164062 1194.9375 Z M 635.164062 670.914062 " clip-rule="nonzero"/></clipPath><clipPath id="827a5850cf"><path d="M 663.664062 670.914062 L 1130.6875 670.914062 C 1138.246094 670.914062 1145.496094 673.914062 1150.839844 679.261719 C 1156.183594 684.605469 1159.1875 691.855469 1159.1875 699.414062 L 1159.1875 1166.4375 C 1159.1875 1173.996094 1156.183594 1181.246094 1150.839844 1186.589844 C 1145.496094 1191.933594 1138.246094 1194.9375 1130.6875 1194.9375 L 663.664062 1194.9375 C 656.105469 1194.9375 648.855469 1191.933594 643.511719 1186.589844 C 638.164062 1181.246094 635.164062 1173.996094 635.164062 1166.4375 L 635.164062 699.414062 C 635.164062 691.855469 638.164062 684.605469 643.511719 679.261719 C 648.855469 673.914062 656.105469 670.914062 663.664062 670.914062 Z M 663.664062 670.914062 " clip-rule="nonzero"/></clipPath><clipPath id="80432135c6"><path d="M 0.164062 0.914062 L 524.1875 0.914062 L 524.1875 524.9375 L 0.164062 524.9375 Z M 0.164062 0.914062 " clip-rule="nonzero"/></clipPath><clipPath id="447922ad1f"><path d="M 28.664062 0.914062 L 495.6875 0.914062 C 503.246094 0.914062 510.496094 3.914062 515.839844 9.261719 C 521.183594 14.605469 524.1875 21.855469 524.1875 29.414062 L 524.1875 496.4375 C 524.1875 503.996094 521.183594 511.246094 515.839844 516.589844 C 510.496094 521.933594 503.246094 524.9375 495.6875 524.9375 L 28.664062 524.9375 C 21.105469 524.9375 13.855469 521.933594 8.511719 516.589844 C 3.164062 511.246094 0.164062 503.996094 0.164062 496.4375 L 0.164062 29.414062 C 0.164062 21.855469 3.164062 14.605469 8.511719 9.261719 C 13.855469 3.914062 21.105469 0.914062 28.664062 0.914062 Z M 28.664062 0.914062 " clip-rule="nonzero"/></clipPath><clipPath id="ddd29a5c5a"><rect x="0" width="525" y="0" height="525"/></clipPath><clipPath id="a38dd4c50c"><path d="M 440 481 L 1118 481 L 1118 1160 L 440 1160 Z M 440 481 " clip-rule="nonzero"/></clipPath><clipPath id="8ff9b96ec9"><path d="M 440.417969 970.113281 L 928.75 481.78125 L 1117.878906 670.90625 L 629.546875 1159.242188 Z M 440.417969 970.113281 " clip-rule="nonzero"/></clipPath><clipPath id="d56cd0a9a0"><path d="M 0.398438 0.679688 L 677.921875 0.679688 L 677.921875 678.441406 L 0.398438 678.441406 Z M 0.398438 0.679688 " clip-rule="nonzero"/></clipPath><clipPath id="a801b2ecac"><path d="M 0.417969 489.113281 L 488.75 0.78125 L 677.878906 189.90625 L 189.546875 678.242188 Z M 0.417969 489.113281 " clip-rule="nonzero"/></clipPath><clipPath id="b24c7e621e"><rect x="0" width="678" y="0" height="679"/></clipPath><clipPath id="21204ed23d"><path d="M 39 78 L 1088 78 L 1088 1127 L 39 1127 Z M 39 78 " clip-rule="nonzero"/></clipPath><clipPath id="15bec9cabc"><path d="M 39.425781 816.738281 L 778.042969 78.121094 L 1087.476562 387.558594 L 348.859375 1126.175781 Z M 39.425781 816.738281 " clip-rule="nonzero"/></clipPath><clipPath id="312a73c963"><path d="M 0.359375 0 L 1048.679688 0 L 1048.679688 1048.320312 L 0.359375 1048.320312 Z M 0.359375 0 " clip-rule="nonzero"/></clipPath><clipPath id="f389fabce6"><path d="M 0.425781 738.738281 L 739.042969 0.121094 L 1048.476562 309.558594 L 309.859375 1048.175781 Z M 0.425781 738.738281 " clip-rule="nonzero"/></clipPath><clipPath id="edced43b14"><rect x="0" width="1049" y="0" height="1049"/></clipPath><clipPath id="58ef874c5e"><path d="M 708.742188 204.53125 L 856.148438 204.53125 L 856.148438 527.558594 L 708.742188 527.558594 Z M 708.742188 204.53125 " clip-rule="nonzero"/></clipPath><clipPath id="fb838e0b0c"><path d="M 763.492188 204.53125 L 801.398438 204.53125 C 815.917969 204.53125 829.84375 210.296875 840.113281 220.566406 C 850.378906 230.832031 856.148438 244.757812 856.148438 259.28125 L 856.148438 472.441406 C 856.148438 486.960938 850.378906 500.886719 840.113281 511.15625 C 829.84375 521.421875 815.917969 527.191406 801.398438 527.191406 L 763.492188 527.191406 C 748.96875 527.191406 735.042969 521.421875 724.777344 511.15625 C 714.507812 500.886719 708.742188 486.960938 708.742188 472.441406 L 708.742188 259.28125 C 708.742188 244.757812 714.507812 230.832031 724.777344 220.566406 C 735.042969 210.296875 748.96875 204.53125 763.492188 204.53125 Z M 763.492188 204.53125 " clip-rule="nonzero"/></clipPath><clipPath id="30237449cc"><path d="M 0.742188 0.53125 L 148.148438 0.53125 L 148.148438 323 L 0.742188 323 Z M 0.742188 0.53125 " clip-rule="nonzero"/></clipPath><clipPath id="95f9013eee"><path d="M 55.492188 0.53125 L 93.398438 0.53125 C 107.917969 0.53125 121.84375 6.296875 132.113281 16.566406 C 142.378906 26.832031 148.148438 40.757812 148.148438 55.28125 L 148.148438 268.441406 C 148.148438 282.960938 142.378906 296.886719 132.113281 307.15625 C 121.84375 317.421875 107.917969 323.191406 93.398438 323.191406 L 55.492188 323.191406 C 40.96875 323.191406 27.042969 317.421875 16.777344 307.15625 C 6.507812 296.886719 0.742188 282.960938 0.742188 268.441406 L 0.742188 55.28125 C 0.742188 40.757812 6.507812 26.832031 16.777344 16.566406 C 27.042969 6.296875 40.96875 0.53125 55.492188 0.53125 Z M 55.492188 0.53125 " clip-rule="nonzero"/></clipPath><clipPath id="49439d696a"><rect x="0" width="149" y="0" height="324"/></clipPath><clipPath id="ba1fc07d92"><path d="M 193 242 L 588 242 L 588 638 L 193 638 Z M 193 242 " clip-rule="nonzero"/></clipPath><clipPath id="e5caaa82f1"><path d="M 170.847656 324.441406 L 275.078125 220.207031 L 610.578125 555.707031 L 506.347656 659.941406 Z M 170.847656 324.441406 " clip-rule="nonzero"/></clipPath><clipPath id="c0d5a8c56c"><path d="M 209.558594 285.726562 L 236.363281 258.921875 C 246.632812 248.652344 260.558594 242.886719 275.078125 242.886719 C 289.601562 242.886719 303.527344 248.652344 313.792969 258.921875 L 571.835938 516.964844 C 582.101562 527.230469 587.871094 541.15625 587.871094 555.675781 C 587.871094 570.199219 582.101562 584.125 571.835938 594.390625 L 545.03125 621.195312 C 534.761719 631.464844 520.835938 637.230469 506.316406 637.230469 C 491.796875 637.230469 477.871094 631.464844 467.601562 621.195312 L 209.558594 363.152344 C 199.292969 352.886719 193.523438 338.960938 193.523438 324.441406 C 193.523438 309.917969 199.292969 295.992188 209.558594 285.726562 Z M 209.558594 285.726562 " clip-rule="nonzero"/></clipPath><clipPath id="6c43420aea"><path d="M 0.441406 0.878906 L 395 0.878906 L 395 395.441406 L 0.441406 395.441406 Z M 0.441406 0.878906 " clip-rule="nonzero"/></clipPath><clipPath id="e9851af746"><path d="M -22.152344 82.441406 L 82.078125 -21.792969 L 417.578125 313.707031 L 313.347656 417.941406 Z M -22.152344 82.441406 " clip-rule="nonzero"/></clipPath><clipPath id="a270e4238c"><path d="M 16.558594 43.726562 L 43.363281 16.921875 C 53.632812 6.652344 67.558594 0.886719 82.078125 0.886719 C 96.601562 0.886719 110.527344 6.652344 120.792969 16.921875 L 378.835938 274.964844 C 389.101562 285.230469 394.871094 299.15625 394.871094 313.675781 C 394.871094 328.199219 389.101562 342.125 378.835938 352.390625 L 352.03125 379.195312 C 341.761719 389.464844 327.835938 395.230469 313.316406 395.230469 C 298.796875 395.230469 284.871094 389.464844 274.601562 379.195312 L 16.558594 121.152344 C 6.292969 110.886719 0.523438 96.960938 0.523438 82.441406 C 0.523438 67.917969 6.292969 53.992188 16.558594 43.726562 Z M 16.558594 43.726562 " clip-rule="nonzero"/></clipPath><clipPath id="dfa6fac2b9"><rect x="0" width="395" y="0" height="396"/></clipPath><clipPath id="a76e33b600"><path d="M 148.550781 717.601562 L 471.578125 717.601562 L 471.578125 865.007812 L 148.550781 865.007812 Z M 148.550781 717.601562 " clip-rule="nonzero"/></clipPath><clipPath id="ed81b95520"><path d="M 148.550781 810.257812 L 148.550781 772.351562 C 148.550781 757.828125 154.316406 743.902344 164.585938 733.636719 C 174.851562 723.367188 188.777344 717.601562 203.300781 717.601562 L 416.460938 717.601562 C 430.980469 717.601562 444.90625 723.367188 455.175781 733.636719 C 465.441406 743.902344 471.210938 757.828125 471.210938 772.351562 L 471.210938 810.257812 C 471.210938 824.777344 465.441406 838.703125 455.175781 848.972656 C 444.90625 859.238281 430.980469 865.007812 416.460938 865.007812 L 203.300781 865.007812 C 188.777344 865.007812 174.851562 859.238281 164.585938 848.972656 C 154.316406 838.703125 148.550781 824.777344 148.550781 810.257812 Z M 148.550781 810.257812 " clip-rule="nonzero"/></clipPath><clipPath id="0043a5c36e"><path d="M 0.550781 0.601562 L 323.359375 0.601562 L 323.359375 148.007812 L 0.550781 148.007812 Z M 0.550781 0.601562 " clip-rule="nonzero"/></clipPath><clipPath id="6896864dae"><path d="M 0.550781 93.257812 L 0.550781 55.351562 C 0.550781 40.828125 6.316406 26.902344 16.585938 16.636719 C 26.851562 6.367188 40.777344 0.601562 55.300781 0.601562 L 268.460938 0.601562 C 282.980469 0.601562 296.90625 6.367188 307.175781 16.636719 C 317.441406 26.902344 323.210938 40.828125 323.210938 55.351562 L 323.210938 93.257812 C 323.210938 107.777344 317.441406 121.703125 307.175781 131.972656 C 296.90625 142.238281 282.980469 148.007812 268.460938 148.007812 L 55.300781 148.007812 C 40.777344 148.007812 26.851562 142.238281 16.585938 131.972656 C 6.316406 121.703125 0.550781 107.777344 0.550781 93.257812 Z M 0.550781 93.257812 " clip-rule="nonzero"/></clipPath><clipPath id="90df203613"><rect x="0" width="324" y="0" height="149"/></clipPath></defs><rect x="-150" width="1800" fill="#ffffff" y="-149.999993" height="1799.99992" fill-opacity="1"/><rect x="-150" width="1800" fill="#ffffff" y="-149.999993" height="1799.99992" fill-opacity="1"/><g clip-path="url(#9eac9b4bba)"><g clip-path="url(#749b193129)"><g transform="matrix(1, 0, 0, 1, 408, 443)"><g clip-path="url(#6250248c9e)"><g clip-path="url(#4016d0dc5d)"><g clip-path="url(#37ababee3d)"><path fill="#1a2e38" d="M 0.226562 0.976562 L 978.121094 0.976562 L 978.121094 978.871094 L 0.226562 978.871094 Z M 0.226562 0.976562 " fill-opacity="1" fill-rule="nonzero"/></g></g></g></g></g></g><g clip-path="url(#43941de312)"><g clip-path="url(#827a5850cf)"><g transform="matrix(1, 0, 0, 1, 635, 670)"><g clip-path="url(#ddd29a5c5a)"><g clip-path="url(#80432135c6)"><g clip-path="url(#447922ad1f)"><path fill="#ffffff" d="M 0.164062 0.914062 L 524.1875 0.914062 L 524.1875 524.9375 L 0.164062 524.9375 Z M 0.164062 0.914062 " fill-opacity="1" fill-rule="nonzero"/></g></g></g></g></g></g><g clip-path="url(#a38dd4c50c)"><g clip-path="url(#8ff9b96ec9)"><g transform="matrix(1, 0, 0, 1, 440, 481)"><g clip-path="url(#b24c7e621e)"><g clip-path="url(#d56cd0a9a0)"><g clip-path="url(#a801b2ecac)"><path fill="#1a2e38" d="M 0.417969 489.113281 L 488.75 0.78125 L 677.875 189.910156 L 189.546875 678.242188 Z M 0.417969 489.113281 " fill-opacity="1" fill-rule="nonzero"/></g></g></g></g></g></g><g clip-path="url(#21204ed23d)"><g clip-path="url(#15bec9cabc)"><g transform="matrix(1, 0, 0, 1, 39, 78)"><g clip-path="url(#edced43b14)"><g clip-path="url(#312a73c963)"><g clip-path="url(#f389fabce6)"><path fill="#ffffff" d="M 0.425781 738.738281 L 738.960938 0.203125 L 1048.394531 309.640625 L 309.859375 1048.175781 Z M 0.425781 738.738281 " fill-opacity="1" fill-rule="nonzero"/></g></g></g></g></g></g><g clip-path="url(#58ef874c5e)"><g clip-path="url(#fb838e0b0c)"><g transform="matrix(1, 0, 0, 1, 708, 204)"><g clip-path="url(#49439d696a)"><g clip-path="url(#30237449cc)"><g clip-path="url(#95f9013eee)"><path fill="#1a2e38" d="M 0.742188 0.53125 L 148.148438 0.53125 L 148.148438 322.984375 L 0.742188 322.984375 Z M 0.742188 0.53125 " fill-opacity="1" fill-rule="nonzero"/></g></g></g></g></g></g><g clip-path="url(#ba1fc07d92)"><g clip-path="url(#e5caaa82f1)"><g clip-path="url(#c0d5a8c56c)"><g transform="matrix(1, 0, 0, 1, 193, 242)"><g clip-path="url(#dfa6fac2b9)"><g clip-path="url(#6c43420aea)"><g clip-path="url(#e9851af746)"><g clip-path="url(#a270e4238c)"><path fill="#1a2e38" d="M -22.152344 82.441406 L 82.078125 -21.792969 L 417.578125 313.707031 L 313.347656 417.941406 Z M -22.152344 82.441406 " fill-opacity="1" fill-rule="nonzero"/></g></g></g></g></g></g></g></g><g clip-path="url(#a76e33b600)"><g clip-path="url(#ed81b95520)"><g transform="matrix(1, 0, 0, 1, 148, 717)"><g clip-path="url(#90df203613)"><g clip-path="url(#0043a5c36e)"><g clip-path="url(#6896864dae)"><path fill="#1a2e38" d="M 0.550781 148.007812 L 0.550781 0.601562 L 323.003906 0.601562 L 323.003906 148.007812 Z M 0.550781 148.007812 " fill-opacity="1" fill-rule="nonzero"/></g></g></g></g></g></g></svg>