<svg xmlns="http://www.w3.org/2000/svg" xmlns:xlink="http://www.w3.org/1999/xlink" width="2000" zoomAndPan="magnify" viewBox="0 0 1500 1499.999933" height="2000" preserveAspectRatio="xMidYMid meet" version="1.0"><defs><g/><clipPath id="a70fb77cc3"><rect x="0" width="820" y="0" height="1500"/></clipPath><clipPath id="4102144289"><path d="M 1068 247 L 1236 247 L 1236 417 L 1068 417 Z M 1068 247 " clip-rule="nonzero"/></clipPath><clipPath id="9f045aef7e"><path d="M 1039.558594 386.609375 L 1097.453125 219.347656 L 1262.589844 276.507812 L 1204.695312 443.769531 Z M 1039.558594 386.609375 " clip-rule="nonzero"/></clipPath><clipPath id="91f3cd8f5a"><path d="M 1039.558594 386.609375 L 1097.453125 219.347656 L 1262.589844 276.507812 L 1204.695312 443.769531 Z M 1039.558594 386.609375 " clip-rule="nonzero"/></clipPath><clipPath id="444d270b6c"><path d="M 1039.558594 386.609375 L 1097.453125 219.347656 L 1262.589844 276.507812 L 1204.695312 443.769531 Z M 1039.558594 386.609375 " clip-rule="nonzero"/></clipPath></defs><rect x="-150" width="1800" fill="#ffffff" y="-149.999993" height="1799.99992" fill-opacity="1"/><rect x="-150" width="1800" fill="#3d98d6" y="-149.999993" height="1799.99992" fill-opacity="1"/><g transform="matrix(1, 0, 0, 1, 374, 0.000000000000112861)"><g clip-path="url(#a70fb77cc3)"><g fill="#ffffff" fill-opacity="1"><g transform="translate(1.000001, 1205.033454)"><g><path d="M 15.875 -710 C 19.789062 -730.757812 22.335938 -742.90625 23.515625 -746.4375 C 28.210938 -764.070312 38.789062 -777.585938 55.25 -786.984375 C 61.519531 -790.910156 74.644531 -797.378906 94.625 -806.390625 C 141.25 -826.765625 191.207031 -841.457031 244.5 -850.46875 C 298.96875 -859.476562 353.429688 -861.632812 407.890625 -856.9375 C 465.097656 -851.84375 517.410156 -839.109375 564.828125 -818.734375 C 615.765625 -796.398438 658.671875 -766.03125 693.546875 -727.625 C 710.390625 -709.207031 725.472656 -688.441406 738.796875 -665.328125 C 752.515625 -638.296875 762.113281 -613.804688 767.59375 -591.859375 C 774.257812 -565.210938 776.21875 -539.941406 773.46875 -516.046875 C 767.195312 -457.265625 731.148438 -405.539062 665.328125 -360.875 C 599.109375 -315.8125 543.273438 -287.597656 497.828125 -276.234375 C 448.054688 -263.703125 396.722656 -259.394531 343.828125 -263.3125 C 340.691406 -263.695312 336.578125 -263.304688 331.484375 -262.140625 C 326.003906 -260.566406 321.695312 -259 318.5625 -257.4375 C 313.851562 -255.082031 309.148438 -252.140625 304.453125 -248.609375 C 293.867188 -240.773438 285.441406 -227.257812 279.171875 -208.0625 C 273.691406 -190.820312 270.164062 -170.835938 268.59375 -148.109375 C 267.425781 -133.609375 266.84375 -112.453125 266.84375 -84.640625 C 266.84375 -74.453125 267.234375 -65.046875 268.015625 -56.421875 C 268.398438 -47.804688 268.789062 -40.554688 269.1875 -34.671875 C 269.582031 -27.617188 269.191406 -21.546875 268.015625 -16.453125 C 266.835938 -11.753906 264.484375 -8.226562 260.953125 -5.875 C 257.429688 -3.132812 253.515625 -1.566406 249.203125 -1.171875 C 242.148438 -0.390625 236.273438 0 231.578125 0 C 212.765625 0 187.6875 -1.175781 156.34375 -3.53125 C 124.601562 -5.875 101.09375 -12.726562 85.8125 -24.09375 C 81.5 -26.84375 77.582031 -30.765625 74.0625 -35.859375 C 67.394531 -44.078125 60.734375 -60.726562 54.078125 -85.8125 C 48.191406 -105.40625 42.3125 -131.070312 36.4375 -162.8125 C 30.957031 -187.488281 26.253906 -213.9375 22.328125 -242.15625 C 17.628906 -271.539062 15.082031 -290.148438 14.6875 -297.984375 C 14.300781 -299.554688 14.109375 -301.910156 14.109375 -305.046875 C 13.710938 -306.210938 13.515625 -307.382812 13.515625 -308.5625 C 13.128906 -309.738281 12.9375 -310.914062 12.9375 -312.09375 C 12.9375 -315.226562 12.738281 -317.578125 12.34375 -319.140625 C 12.34375 -320.316406 12.34375 -321.492188 12.34375 -322.671875 C 11.945312 -323.453125 11.75 -324.429688 11.75 -325.609375 C 10.1875 -340.503906 8.816406 -355.785156 7.640625 -371.453125 C 6.078125 -386.734375 4.898438 -402.40625 4.109375 -418.46875 C 1.765625 -447.070312 0.394531 -479.789062 0 -516.625 C 0 -555.8125 1.175781 -588.726562 3.53125 -615.375 C 5.875 -652.207031 9.988281 -683.75 15.875 -710 Z M 471.953125 -648.28125 C 428.460938 -665.519531 383.015625 -668.265625 335.609375 -656.515625 C 328.941406 -654.160156 323.453125 -652.203125 319.140625 -650.640625 C 303.859375 -643.585938 291.910156 -632.222656 283.296875 -616.546875 C 277.023438 -603.617188 274.085938 -583.632812 274.484375 -556.59375 C 274.867188 -529.5625 278.976562 -510.164062 286.8125 -498.40625 C 291.90625 -491.351562 297 -486.066406 302.09375 -482.546875 C 316.207031 -470.390625 335.800781 -464.117188 360.875 -463.734375 C 382.820312 -463.335938 406.53125 -464.90625 432 -468.4375 C 457.070312 -471.957031 478.425781 -481.359375 496.0625 -496.640625 C 506.632812 -506.441406 514.863281 -517.21875 520.75 -528.96875 C 526.625 -541.113281 529.5625 -554.046875 529.5625 -567.765625 C 528.78125 -597.929688 514.085938 -622.421875 485.484375 -641.234375 C 481.554688 -643.972656 477.046875 -646.320312 471.953125 -648.28125 Z M 471.953125 -648.28125 "/></g></g></g></g></g><g clip-path="url(#4102144289)"><g clip-path="url(#9f045aef7e)"><g clip-path="url(#91f3cd8f5a)"><g clip-path="url(#444d270b6c)"><path fill="#f6d636" d="M 1125.195312 416.074219 C 1124.667969 413.992188 1125.082031 411.882812 1125.246094 409.816406 C 1125.53125 405.742188 1126.4375 401.722656 1126.40625 397.621094 C 1126.382812 391.199219 1126.640625 384.730469 1125.960938 378.34375 C 1125.265625 371.257812 1123.984375 364.285156 1122.113281 357.417969 C 1121.304688 354.367188 1120.253906 351.398438 1118.960938 348.519531 C 1116.46875 343.050781 1113.203125 338.085938 1109.164062 333.632812 C 1104.871094 328.972656 1099.789062 325.335938 1094.808594 321.554688 C 1088.960938 317.183594 1082.902344 313.128906 1076.636719 309.382812 C 1074.601562 308.148438 1072.390625 307.191406 1070.296875 306.0625 C 1069.480469 305.5625 1068.914062 304.863281 1068.59375 303.964844 C 1068.347656 303.339844 1068.828125 302.921875 1069.765625 302.851562 C 1072.234375 302.632812 1074.703125 302.628906 1077.171875 302.839844 C 1083.6875 303.25 1090.21875 303.417969 1096.738281 303.300781 C 1101.625 303.132812 1106.476562 302.628906 1111.292969 301.78125 C 1113.96875 301.359375 1129.265625 298.375 1131.738281 297.476562 C 1137.886719 295.328125 1143.28125 291.96875 1147.925781 287.398438 C 1150.238281 285.0625 1152.3125 282.527344 1154.152344 279.800781 C 1156.667969 276.171875 1159.503906 272.65625 1162.082031 269.046875 C 1165.378906 264.488281 1168.324219 259.710938 1170.921875 254.71875 C 1172.316406 252.203125 1173.863281 249.789062 1175.566406 247.472656 C 1176.027344 246.824219 1176.597656 246.875 1177.011719 247.558594 C 1177.265625 248.085938 1177.378906 248.640625 1177.347656 249.226562 C 1177.390625 251.324219 1177.289062 253.414062 1177.042969 255.5 C 1176.621094 261.28125 1176.660156 267.058594 1177.148438 272.835938 C 1177.675781 280.765625 1179.28125 288.476562 1181.957031 295.960938 C 1182.898438 298.535156 1183.683594 301.238281 1184.535156 303.882812 C 1185.796875 307.808594 1188.058594 311.15625 1190.320312 314.558594 C 1198.59375 327.546875 1231.605469 350.007812 1234.371094 351.628906 C 1234.664062 351.800781 1234.9375 352 1235.1875 352.226562 C 1235.53125 352.535156 1236.082031 352.894531 1235.917969 353.367188 C 1235.617188 353.855469 1235.179688 354.121094 1234.609375 354.164062 C 1226.957031 355.214844 1219.34375 356.605469 1211.820312 358.253906 C 1204.910156 359.765625 1197.933594 361.074219 1191.085938 362.910156 C 1184.914062 364.496094 1178.847656 366.425781 1172.886719 368.691406 C 1164.753906 371.890625 1157.621094 376.601562 1151.484375 382.824219 C 1147.292969 387.046875 1143.503906 391.605469 1140.117188 396.492188 C 1137.269531 400.683594 1134.089844 404.710938 1131.183594 408.914062 C 1129.832031 410.863281 1128.160156 412.644531 1127.410156 415.007812 C 1127.210938 415.648438 1126.484375 415.957031 1125.917969 416.324219 Z M 1125.195312 416.074219 " fill-opacity="1" fill-rule="nonzero"/></g></g></g></g></svg>