<svg xmlns="http://www.w3.org/2000/svg" xmlns:xlink="http://www.w3.org/1999/xlink" width="1200" zoomAndPan="magnify" viewBox="0 0 900 299.999988" height="400" preserveAspectRatio="xMidYMid meet" version="1.0"><defs><g/><clipPath id="dafe501cd1"><rect x="0" width="105" y="0" height="253"/></clipPath><clipPath id="aeecd817a8"><rect x="0" width="106" y="0" height="296"/></clipPath><clipPath id="a08ec0d755"><rect x="0" width="168" y="0" height="295"/></clipPath><clipPath id="a504b77eb6"><path d="M 0.441406 32 L 164 32 L 164 214 L 0.441406 214 Z M 0.441406 32 " clip-rule="nonzero"/></clipPath><clipPath id="f8d647fa78"><rect x="0" width="173" y="0" height="281"/></clipPath><clipPath id="774d3aeeb0"><rect x="0" width="105" y="0" height="253"/></clipPath><clipPath id="5a836426ab"><rect x="0" width="119" y="0" height="300"/></clipPath><clipPath id="83f49c2326"><rect x="0" width="123" y="0" height="291"/></clipPath><clipPath id="ba530f0ab9"><path d="M 493 35 L 551 35 L 551 94 L 493 94 Z M 493 35 " clip-rule="nonzero"/></clipPath><clipPath id="6770a17489"><path d="M 483.382812 83.144531 L 503.253906 25.738281 L 559.953125 45.363281 L 540.082031 102.769531 Z M 483.382812 83.144531 " clip-rule="nonzero"/></clipPath><clipPath id="4a46a630a6"><path d="M 483.382812 83.144531 L 503.253906 25.738281 L 559.953125 45.363281 L 540.082031 102.769531 Z M 483.382812 83.144531 " clip-rule="nonzero"/></clipPath><clipPath id="cd55443509"><path d="M 483.382812 83.144531 L 503.253906 25.738281 L 559.953125 45.363281 L 540.082031 102.769531 Z M 483.382812 83.144531 " clip-rule="nonzero"/></clipPath></defs><g transform="matrix(1, 0, 0, 1, 297, 26)"><g clip-path="url(#dafe501cd1)"><g fill="#f93d3a" fill-opacity="1"><g transform="translate(1.509299, 201.716165)"><g><path d="M 38.9375 -40.078125 C 36.84375 -36.460938 37.160156 -32.59375 39.890625 -28.46875 C 42.617188 -24.28125 47.15625 -23.132812 53.5 -25.03125 C 57.5 -26.238281 60.515625 -28.019531 62.546875 -30.375 C 64.578125 -32.71875 65.878906 -35.222656 66.453125 -37.890625 C 66.953125 -40.804688 66.222656 -43.28125 64.265625 -45.3125 C 62.234375 -47.34375 59.722656 -48.613281 56.734375 -49.125 C 53.691406 -49.570312 50.488281 -49.128906 47.125 -47.796875 C 43.757812 -46.398438 41.03125 -43.828125 38.9375 -40.078125 Z M 58.453125 -76.34375 C 52.234375 -77.738281 46.078125 -77.898438 39.984375 -76.828125 C 35.347656 -76.003906 31.445312 -74.382812 28.28125 -71.96875 C 25.039062 -69.5 21.328125 -68.675781 17.140625 -69.5 C 12.878906 -70.320312 9.863281 -72.703125 8.09375 -76.640625 C 6.3125 -80.503906 6.753906 -83.832031 9.421875 -86.625 C 12.023438 -89.425781 14.375 -91.554688 16.46875 -93.015625 C 17.925781 -94.085938 19.414062 -95.003906 20.9375 -95.765625 C 25 -97.921875 29.222656 -99.351562 33.609375 -100.0625 C 37.921875 -100.757812 42.265625 -101.171875 46.640625 -101.296875 C 52.484375 -101.421875 58.195312 -100.878906 63.78125 -99.671875 C 68.164062 -98.785156 72.453125 -97.453125 76.640625 -95.671875 C 80.765625 -93.835938 84.757812 -90.125 88.625 -84.53125 C 92.4375 -78.945312 94.085938 -72.347656 93.578125 -64.734375 C 93.066406 -57.054688 92.78125 -47.984375 92.71875 -37.515625 C 92.65625 -26.023438 94.050781 -17.421875 96.90625 -11.703125 C 97.226562 -10.816406 97.578125 -9.867188 97.953125 -8.859375 C 98.273438 -7.835938 98.40625 -6.820312 98.34375 -5.8125 C 98.34375 -4.03125 97.613281 -2.441406 96.15625 -1.046875 C 94.695312 0.347656 92.472656 1.332031 89.484375 1.90625 C 86.441406 2.476562 83.648438 2.347656 81.109375 1.515625 C 78.566406 0.691406 76.757812 -0.00390625 75.6875 -0.578125 C 73.71875 -1.648438 72.222656 -3.140625 71.203125 -5.046875 C 70.503906 -6.441406 69.9375 -7.773438 69.5 -9.046875 C 66.132812 -6.503906 63.273438 -4.726562 60.921875 -3.71875 C 55.722656 -1.488281 50.171875 -0.25 44.265625 0 C 38.234375 0.125 32.488281 -0.734375 27.03125 -2.578125 C 22.84375 -3.972656 19.003906 -5.84375 15.515625 -8.1875 C 12.023438 -10.46875 9.359375 -13.351562 7.515625 -16.84375 C 5.804688 -20.207031 4.953125 -24.113281 4.953125 -28.5625 C 4.953125 -34.90625 6.664062 -40.617188 10.09375 -45.703125 C 11.863281 -48.171875 13.546875 -50.453125 15.140625 -52.546875 C 16.660156 -54.640625 19.988281 -57.5625 25.125 -61.3125 C 30.269531 -65.050781 36.523438 -67.332031 43.890625 -68.15625 C 51.253906 -68.988281 59.09375 -68.453125 67.40625 -66.546875 C 67.65625 -66.984375 67.429688 -68.1875 66.734375 -70.15625 C 66.035156 -72.0625 63.273438 -74.125 58.453125 -76.34375 Z M 58.453125 -76.34375 "/></g></g></g></g></g><g transform="matrix(1, 0, 0, 1, 205, 0)"><g clip-path="url(#aeecd817a8)"><g fill="#31a768" fill-opacity="1"><g transform="translate(2.467719, 229.130628)"><g><path d="M 48.15625 -110.359375 C 57.925781 -116.515625 67.25 -119.472656 76.125 -119.234375 C 84.988281 -118.898438 91.597656 -116.597656 95.953125 -112.328125 C 100.304688 -108.054688 100.835938 -101.976562 97.546875 -94.09375 C 94.265625 -86.21875 89.585938 -82.976562 83.515625 -84.375 C 77.429688 -85.769531 71.1875 -85.191406 64.78125 -82.640625 C 58.382812 -80.097656 54.566406 -73.40625 53.328125 -62.5625 C 52.097656 -51.644531 53.578125 -38.675781 57.765625 -23.65625 C 58.335938 -21.675781 58.953125 -19.617188 59.609375 -17.484375 C 60.179688 -15.273438 60.550781 -13.140625 60.71875 -11.078125 C 60.800781 -7.222656 59.160156 -4.472656 55.796875 -2.828125 C 52.347656 -1.191406 48.363281 -0.25 43.84375 0 C 39.332031 0.25 34.859375 -0.0351562 30.421875 -0.859375 C 25.984375 -1.679688 22.863281 -2.664062 21.0625 -3.8125 C 17.695312 -5.863281 15.191406 -8.90625 13.546875 -12.9375 C 11.828125 -16.957031 10.472656 -20.894531 9.484375 -24.75 C 7.597656 -32.144531 6.117188 -41.550781 5.046875 -52.96875 C 3.984375 -64.289062 3.453125 -74.140625 3.453125 -82.515625 C 3.367188 -90.816406 3.65625 -98.046875 4.3125 -104.203125 C 4.882812 -110.359375 6.113281 -115.242188 8 -118.859375 C 9.644531 -121.816406 11.660156 -123.828125 14.046875 -124.890625 C 16.921875 -126.203125 20.285156 -126.984375 24.140625 -127.234375 C 27.921875 -127.484375 31.328125 -127.441406 34.359375 -127.109375 C 38.796875 -126.617188 42.285156 -125.347656 44.828125 -123.296875 C 47.378906 -121.242188 48.242188 -117.21875 47.421875 -111.21875 Z M 48.15625 -110.359375 "/></g></g></g></g></g><g transform="matrix(1, 0, 0, 1, 374, 0)"><g clip-path="url(#a08ec0d755)"><g fill="#e8678f" fill-opacity="1"><g transform="translate(19.723443, 222.781123)"><g><path d="M 40.09375 -106.4375 C 44.664062 -112.800781 49.65625 -118.96875 55.0625 -124.9375 C 60.46875 -130.914062 65.929688 -135.957031 71.453125 -140.0625 C 73.671875 -141.726562 76.195312 -143.367188 79.03125 -144.984375 C 81.863281 -146.515625 84.675781 -147.148438 87.46875 -146.890625 C 90.53125 -146.554688 95.335938 -144.015625 101.890625 -139.265625 C 108.347656 -134.421875 109.753906 -129.878906 106.109375 -125.640625 C 105.046875 -124.410156 103.828125 -123.347656 102.453125 -122.453125 C 101.085938 -121.460938 99.804688 -120.523438 98.609375 -119.640625 C 85.523438 -109.960938 74.222656 -98.835938 64.703125 -86.265625 C 68.421875 -83.910156 73.492188 -80.628906 79.921875 -76.421875 C 86.359375 -72.109375 92.894531 -67.71875 99.53125 -63.25 C 106.0625 -58.6875 112.085938 -54.445312 117.609375 -50.53125 C 123.035156 -46.519531 126.753906 -43.597656 128.765625 -41.765625 C 133.328125 -37.421875 132.554688 -32.109375 126.453125 -25.828125 C 120.367188 -19.460938 115.742188 -15.898438 112.578125 -15.140625 C 109.503906 -14.328125 105.066406 -15.378906 99.265625 -18.296875 C 93.460938 -21.117188 87.484375 -24.601562 81.328125 -28.75 C 75.160156 -32.894531 69.394531 -37.148438 64.03125 -41.515625 C 58.5625 -45.890625 54.679688 -49.203125 52.390625 -51.453125 C 51.804688 -52.128906 50.9375 -53.234375 49.78125 -54.765625 C 53.101562 -43.390625 57.003906 -33.476562 61.484375 -25.03125 C 62.210938 -23.5625 62.984375 -22.054688 63.796875 -20.515625 C 64.617188 -18.953125 65.171875 -17.378906 65.453125 -15.796875 C 66.628906 -10.078125 62.222656 -6.535156 52.234375 -5.171875 C 42.148438 -3.796875 35.332031 -3.703125 31.78125 -4.890625 C 28.675781 -5.929688 26.140625 -7.90625 24.171875 -10.8125 C 22.117188 -13.613281 20.421875 -16.40625 19.078125 -19.1875 C 13.910156 -29.8125 9.445312 -45.523438 5.6875 -66.328125 C 1.820312 -87.117188 -0.460938 -120.585938 -1.171875 -166.734375 C -0.953125 -171.472656 -0.148438 -175.488281 1.234375 -178.78125 C 2.234375 -181.1875 3.71875 -183.03125 5.6875 -184.3125 C 7.914062 -185.613281 10.695312 -186.640625 14.03125 -187.390625 C 17.394531 -188.066406 20.445312 -188.492188 23.1875 -188.671875 C 27.007812 -188.921875 30.160156 -188.457031 32.640625 -187.28125 C 35.128906 -186.019531 36.4375 -183.078125 36.5625 -178.453125 C 36.53125 -173.453125 37.707031 -149.445312 40.09375 -106.4375 Z M 40.09375 -106.4375 "/></g></g></g></g></g><g transform="matrix(1, 0, 0, 1, 61, 0)"><g clip-path="url(#f8d647fa78)"><g clip-path="url(#a504b77eb6)"><g fill="#3d98d6" fill-opacity="1"><g transform="translate(0.578514, 213.839843)"><g><path d="M 3.328125 -148.78125 C 4.148438 -153.132812 4.679688 -155.679688 4.921875 -156.421875 C 5.910156 -160.117188 8.128906 -162.953125 11.578125 -164.921875 C 12.890625 -165.742188 15.640625 -167.097656 19.828125 -168.984375 C 29.597656 -173.253906 40.066406 -176.332031 51.234375 -178.21875 C 62.648438 -180.113281 74.066406 -180.566406 85.484375 -179.578125 C 97.472656 -178.515625 108.429688 -175.847656 118.359375 -171.578125 C 129.035156 -166.890625 138.03125 -160.523438 145.34375 -152.484375 C 148.875 -148.617188 152.035156 -144.265625 154.828125 -139.421875 C 157.703125 -133.753906 159.710938 -128.625 160.859375 -124.03125 C 162.253906 -118.445312 162.664062 -113.148438 162.09375 -108.140625 C 160.78125 -95.828125 153.222656 -84.988281 139.421875 -75.625 C 125.546875 -66.1875 113.847656 -60.273438 104.328125 -57.890625 C 93.898438 -55.265625 83.140625 -54.363281 72.046875 -55.1875 C 71.390625 -55.257812 70.53125 -55.175781 69.46875 -54.9375 C 68.320312 -54.601562 67.414062 -54.273438 66.75 -53.953125 C 65.769531 -53.453125 64.785156 -52.832031 63.796875 -52.09375 C 61.578125 -50.457031 59.8125 -47.628906 58.5 -43.609375 C 57.351562 -39.992188 56.613281 -35.800781 56.28125 -31.03125 C 56.039062 -28 55.921875 -23.566406 55.921875 -17.734375 C 55.921875 -15.597656 56.003906 -13.628906 56.171875 -11.828125 C 56.242188 -10.015625 56.320312 -8.492188 56.40625 -7.265625 C 56.488281 -5.785156 56.410156 -4.515625 56.171875 -3.453125 C 55.921875 -2.460938 55.425781 -1.722656 54.6875 -1.234375 C 53.945312 -0.660156 53.125 -0.332031 52.21875 -0.25 C 50.738281 -0.0820312 49.507812 0 48.53125 0 C 44.582031 0 39.328125 -0.242188 32.765625 -0.734375 C 26.109375 -1.234375 21.179688 -2.671875 17.984375 -5.046875 C 17.078125 -5.617188 16.253906 -6.441406 15.515625 -7.515625 C 14.117188 -9.234375 12.722656 -12.722656 11.328125 -17.984375 C 10.097656 -22.085938 8.867188 -27.46875 7.640625 -34.125 C 6.484375 -39.289062 5.5 -44.832031 4.6875 -50.75 C 3.695312 -56.90625 3.160156 -60.804688 3.078125 -62.453125 C 2.992188 -62.773438 2.953125 -63.265625 2.953125 -63.921875 C 2.867188 -64.171875 2.828125 -64.414062 2.828125 -64.65625 C 2.742188 -64.90625 2.703125 -65.15625 2.703125 -65.40625 C 2.703125 -66.0625 2.664062 -66.550781 2.59375 -66.875 C 2.59375 -67.125 2.59375 -67.375 2.59375 -67.625 C 2.507812 -67.78125 2.46875 -67.984375 2.46875 -68.234375 C 2.132812 -71.359375 1.84375 -74.5625 1.59375 -77.84375 C 1.269531 -81.039062 1.023438 -84.328125 0.859375 -87.703125 C 0.367188 -93.691406 0.0820312 -100.546875 0 -108.265625 C 0 -116.472656 0.242188 -123.367188 0.734375 -128.953125 C 1.234375 -136.671875 2.097656 -143.28125 3.328125 -148.78125 Z M 98.90625 -135.859375 C 89.789062 -139.472656 80.265625 -140.046875 70.328125 -137.578125 C 68.929688 -137.085938 67.78125 -136.675781 66.875 -136.34375 C 63.675781 -134.863281 61.175781 -132.484375 59.375 -129.203125 C 58.050781 -126.492188 57.429688 -122.304688 57.515625 -116.640625 C 57.597656 -110.972656 58.460938 -106.910156 60.109375 -104.453125 C 61.171875 -102.972656 62.238281 -101.863281 63.3125 -101.125 C 66.269531 -98.570312 70.375 -97.257812 75.625 -97.1875 C 80.21875 -97.101562 85.1875 -97.429688 90.53125 -98.171875 C 95.78125 -98.910156 100.253906 -100.878906 103.953125 -104.078125 C 106.171875 -106.128906 107.894531 -108.390625 109.125 -110.859375 C 110.351562 -113.398438 110.96875 -116.109375 110.96875 -118.984375 C 110.8125 -125.304688 107.734375 -130.4375 101.734375 -134.375 C 100.910156 -134.945312 99.96875 -135.441406 98.90625 -135.859375 Z M 98.90625 -135.859375 "/></g></g></g></g></g></g><g transform="matrix(1, 0, 0, 1, 520, 21)"><g clip-path="url(#774d3aeeb0)"><g fill="#f93d3a" fill-opacity="1"><g transform="translate(1.700902, 201.638574)"><g><path d="M 38.9375 -40.078125 C 36.84375 -36.460938 37.160156 -32.59375 39.890625 -28.46875 C 42.617188 -24.28125 47.15625 -23.132812 53.5 -25.03125 C 57.5 -26.238281 60.515625 -28.019531 62.546875 -30.375 C 64.578125 -32.71875 65.878906 -35.222656 66.453125 -37.890625 C 66.953125 -40.804688 66.222656 -43.28125 64.265625 -45.3125 C 62.234375 -47.34375 59.722656 -48.613281 56.734375 -49.125 C 53.691406 -49.570312 50.488281 -49.128906 47.125 -47.796875 C 43.757812 -46.398438 41.03125 -43.828125 38.9375 -40.078125 Z M 58.453125 -76.34375 C 52.234375 -77.738281 46.078125 -77.898438 39.984375 -76.828125 C 35.347656 -76.003906 31.445312 -74.382812 28.28125 -71.96875 C 25.039062 -69.5 21.328125 -68.675781 17.140625 -69.5 C 12.878906 -70.320312 9.863281 -72.703125 8.09375 -76.640625 C 6.3125 -80.503906 6.753906 -83.832031 9.421875 -86.625 C 12.023438 -89.425781 14.375 -91.554688 16.46875 -93.015625 C 17.925781 -94.085938 19.414062 -95.003906 20.9375 -95.765625 C 25 -97.921875 29.222656 -99.351562 33.609375 -100.0625 C 37.921875 -100.757812 42.265625 -101.171875 46.640625 -101.296875 C 52.484375 -101.421875 58.195312 -100.878906 63.78125 -99.671875 C 68.164062 -98.785156 72.453125 -97.453125 76.640625 -95.671875 C 80.765625 -93.835938 84.757812 -90.125 88.625 -84.53125 C 92.4375 -78.945312 94.085938 -72.347656 93.578125 -64.734375 C 93.066406 -57.054688 92.78125 -47.984375 92.71875 -37.515625 C 92.65625 -26.023438 94.050781 -17.421875 96.90625 -11.703125 C 97.226562 -10.816406 97.578125 -9.867188 97.953125 -8.859375 C 98.273438 -7.835938 98.40625 -6.820312 98.34375 -5.8125 C 98.34375 -4.03125 97.613281 -2.441406 96.15625 -1.046875 C 94.695312 0.347656 92.472656 1.332031 89.484375 1.90625 C 86.441406 2.476562 83.648438 2.347656 81.109375 1.515625 C 78.566406 0.691406 76.757812 -0.00390625 75.6875 -0.578125 C 73.71875 -1.648438 72.222656 -3.140625 71.203125 -5.046875 C 70.503906 -6.441406 69.9375 -7.773438 69.5 -9.046875 C 66.132812 -6.503906 63.273438 -4.726562 60.921875 -3.71875 C 55.722656 -1.488281 50.171875 -0.25 44.265625 0 C 38.234375 0.125 32.488281 -0.734375 27.03125 -2.578125 C 22.84375 -3.972656 19.003906 -5.84375 15.515625 -8.1875 C 12.023438 -10.46875 9.359375 -13.351562 7.515625 -16.84375 C 5.804688 -20.207031 4.953125 -24.113281 4.953125 -28.5625 C 4.953125 -34.90625 6.664062 -40.617188 10.09375 -45.703125 C 11.863281 -48.171875 13.546875 -50.453125 15.140625 -52.546875 C 16.660156 -54.640625 19.988281 -57.5625 25.125 -61.3125 C 30.269531 -65.050781 36.523438 -67.332031 43.890625 -68.15625 C 51.253906 -68.988281 59.09375 -68.453125 67.40625 -66.546875 C 67.65625 -66.984375 67.429688 -68.1875 66.734375 -70.15625 C 66.035156 -72.0625 63.273438 -74.125 58.453125 -76.34375 Z M 58.453125 -76.34375 "/></g></g></g></g></g><g transform="matrix(1, 0, 0, 1, 618, 0)"><g clip-path="url(#5a836426ab)"><g fill="#31a768" fill-opacity="1"><g transform="translate(0.596412, 234.208223)"><g><path d="M 85.109375 -74.140625 L 94.09375 -67.859375 L 94.84375 -67.375 C 102.0625 -62.9375 107.109375 -57.722656 109.984375 -51.734375 C 112.773438 -45.648438 112.773438 -38.832031 109.984375 -31.28125 C 107.109375 -23.726562 101.9375 -17.328125 94.46875 -12.078125 C 89.625 -8.703125 83.753906 -6.273438 76.859375 -4.796875 C 69.960938 -3.328125 62.816406 -2.753906 55.421875 -3.078125 L 55.296875 -2.953125 L 55.1875 -2.828125 C 45.988281 -3.398438 41.550781 -4.054688 41.875 -4.796875 C 38.507812 -5.453125 35.675781 -6.191406 33.375 -7.015625 L 16.625 -14.78125 C 13.34375 -16.832031 10.507812 -19.210938 8.125 -21.921875 C 7.96875 -22.003906 7.847656 -22.085938 7.765625 -22.171875 C 7.679688 -22.253906 7.640625 -22.378906 7.640625 -22.546875 C 7.472656 -22.617188 7.347656 -22.738281 7.265625 -22.90625 C 7.179688 -22.988281 7.097656 -23.070312 7.015625 -23.15625 C 5.785156 -24.632812 5.085938 -26.273438 4.921875 -28.078125 L 4.921875 -28.828125 C 5.003906 -31.035156 5.128906 -33.742188 5.296875 -36.953125 C 5.460938 -40.066406 5.992188 -42.648438 6.890625 -44.703125 C 7.796875 -47.003906 9.15625 -47.742188 10.96875 -46.921875 C 12.769531 -46.023438 14.285156 -45.039062 15.515625 -43.96875 C 15.679688 -43.800781 15.847656 -43.679688 16.015625 -43.609375 C 16.179688 -43.523438 16.300781 -43.441406 16.375 -43.359375 C 19.414062 -40.648438 22.90625 -38.304688 26.84375 -36.328125 C 35.71875 -32.140625 44.054688 -30.867188 51.859375 -32.515625 C 52.265625 -32.679688 52.921875 -33.007812 53.828125 -33.5 C 56.535156 -35.144531 57.109375 -37.363281 55.546875 -40.15625 C 55.460938 -40.238281 55.378906 -40.359375 55.296875 -40.515625 L 55.0625 -41.015625 C 54.320312 -41.921875 49.226562 -45.613281 39.78125 -52.09375 C 26.226562 -61.539062 18.46875 -67.785156 16.5 -70.828125 C 11.65625 -78.046875 10.21875 -85.269531 12.1875 -92.5 C 14.164062 -99.726562 18.394531 -106.007812 24.875 -111.34375 C 36.457031 -120.863281 54.9375 -124.351562 80.3125 -121.8125 C 83.425781 -120.832031 86.175781 -119.890625 88.5625 -118.984375 C 89.382812 -118.566406 90.695312 -117.953125 92.5 -117.140625 C 94.144531 -116.148438 96.113281 -115.117188 98.40625 -114.046875 L 101.734375 -110.109375 C 101.984375 -109.867188 102.191406 -109.582031 102.359375 -109.25 C 103.910156 -107.28125 105.140625 -104.570312 106.046875 -101.125 C 106.867188 -97.675781 106.128906 -94.925781 103.828125 -92.875 C 103.585938 -92.625 103.425781 -92.5 103.34375 -92.5 C 101.363281 -91.019531 98.570312 -90.691406 94.96875 -91.515625 C 91.101562 -92.578125 87.285156 -93.476562 83.515625 -94.21875 L 77.234375 -95.828125 C 74.109375 -96.148438 70.695312 -96.3125 67 -96.3125 C 59.53125 -93.769531 61.296875 -88.925781 72.296875 -81.78125 C 73.203125 -80.957031 77.472656 -78.410156 85.109375 -74.140625 Z M 85.109375 -74.140625 "/></g></g></g></g></g><g transform="matrix(1, 0, 0, 1, 713, 0)"><g clip-path="url(#83f49c2326)"><g fill="#f6d636" fill-opacity="1"><g transform="translate(1.189894, 224.053037)"><g><path d="M 34.125 -126.734375 C 34.125 -127.722656 34.160156 -128.75 34.234375 -129.8125 C 34.734375 -139.257812 35.554688 -146.40625 36.703125 -151.25 C 37.847656 -156.007812 39.570312 -160.113281 41.875 -163.5625 C 43.84375 -166.601562 46.222656 -168.695312 49.015625 -169.84375 C 52.304688 -171.082031 55.550781 -171.820312 58.75 -172.0625 C 61.957031 -172.226562 65.363281 -172.148438 68.96875 -171.828125 C 74.144531 -171.328125 78.210938 -170.09375 81.171875 -168.125 C 84.128906 -166.070312 85.15625 -162.007812 84.25 -155.9375 C 83.757812 -144.269531 83.265625 -134.617188 82.765625 -126.984375 C 84.492188 -126.898438 86.21875 -126.78125 87.9375 -126.625 C 92.539062 -126.289062 97.179688 -125.59375 101.859375 -124.53125 C 103.992188 -123.539062 106.457031 -122.101562 109.25 -120.21875 C 111.300781 -118.90625 112.820312 -116.6875 113.8125 -113.5625 C 115.445312 -108.46875 115.445312 -103.828125 113.8125 -99.640625 C 112.082031 -95.453125 108.507812 -92.90625 103.09375 -92 C 97.675781 -91.019531 90.898438 -90.773438 82.765625 -91.265625 L 82.765625 -90.53125 C 81.046875 -68.851562 81.660156 -54.523438 84.609375 -47.546875 C 87.566406 -40.484375 92.492188 -35.1875 99.390625 -31.65625 C 106.296875 -28.125 108.679688 -22.046875 106.546875 -13.421875 C 104.410156 -4.722656 98.128906 0.28125 87.703125 1.59375 C 77.191406 2.988281 67.128906 -0.207031 57.515625 -8 C 47.910156 -15.800781 41.546875 -26.929688 38.421875 -41.390625 C 35.222656 -55.835938 33.539062 -71.804688 33.375 -89.296875 L 33.375 -92.625 C 28.039062 -92.375 22.785156 -92.332031 17.609375 -92.5 C 15.972656 -92.25 14.863281 -92.125 14.28125 -92.125 C 13.300781 -92.125 12.398438 -92.25 11.578125 -92.5 C 10.671875 -92.832031 9.972656 -93.328125 9.484375 -93.984375 C 8.828125 -94.554688 8.253906 -95.457031 7.765625 -96.6875 C 6.691406 -101.445312 6.28125 -105.390625 6.53125 -108.515625 C 6.695312 -111.546875 7.109375 -114.210938 7.765625 -116.515625 C 8.421875 -119.066406 10.632812 -121.078125 14.40625 -122.546875 C 16.539062 -123.367188 19.085938 -124.148438 22.046875 -124.890625 C 23.847656 -125.222656 26.597656 -125.675781 30.296875 -126.25 C 31.117188 -126.414062 32.394531 -126.578125 34.125 -126.734375 Z M 34.125 -126.734375 "/></g></g></g></g></g><g clip-path="url(#ba530f0ab9)"><g clip-path="url(#6770a17489)"><g clip-path="url(#4a46a630a6)"><g clip-path="url(#cd55443509)"><path fill="#f6d636" d="M 512.785156 93.261719 C 512.605469 92.546875 512.746094 91.824219 512.804688 91.113281 C 512.902344 89.714844 513.210938 88.335938 513.203125 86.925781 C 513.191406 84.722656 513.28125 82.503906 513.046875 80.308594 C 512.808594 77.878906 512.367188 75.484375 511.726562 73.128906 C 511.449219 72.082031 511.085938 71.0625 510.644531 70.074219 C 509.785156 68.195312 508.664062 66.492188 507.28125 64.964844 C 505.804688 63.363281 504.058594 62.117188 502.351562 60.816406 C 500.34375 59.316406 498.261719 57.925781 496.109375 56.640625 C 495.410156 56.214844 494.652344 55.886719 493.933594 55.5 C 493.652344 55.328125 493.457031 55.089844 493.347656 54.78125 C 493.265625 54.566406 493.429688 54.421875 493.75 54.398438 C 494.597656 54.324219 495.445312 54.320312 496.292969 54.394531 C 498.53125 54.535156 500.773438 54.59375 503.011719 54.554688 C 504.691406 54.496094 506.355469 54.324219 508.007812 54.03125 C 508.925781 53.886719 514.179688 52.863281 515.027344 52.554688 C 517.140625 51.816406 518.992188 50.664062 520.585938 49.097656 C 521.378906 48.292969 522.089844 47.425781 522.722656 46.488281 C 523.585938 45.246094 524.558594 44.039062 525.445312 42.800781 C 526.578125 41.234375 527.589844 39.59375 528.480469 37.882812 C 528.957031 37.019531 529.488281 36.191406 530.074219 35.394531 C 530.230469 35.171875 530.425781 35.1875 530.570312 35.425781 C 530.65625 35.605469 530.695312 35.796875 530.683594 35.996094 C 530.699219 36.714844 530.664062 37.433594 530.582031 38.148438 C 530.4375 40.132812 530.449219 42.117188 530.617188 44.101562 C 530.800781 46.820312 531.351562 49.46875 532.269531 52.039062 C 532.59375 52.921875 532.863281 53.847656 533.15625 54.757812 C 533.589844 56.105469 534.363281 57.253906 535.140625 58.421875 C 537.984375 62.878906 549.316406 70.589844 550.269531 71.144531 C 550.367188 71.207031 550.460938 71.273438 550.546875 71.351562 C 550.667969 71.457031 550.855469 71.582031 550.800781 71.742188 C 550.695312 71.910156 550.546875 72 550.347656 72.015625 C 547.722656 72.375 545.109375 72.855469 542.527344 73.417969 C 540.152344 73.9375 537.757812 74.386719 535.40625 75.015625 C 533.289062 75.5625 531.203125 76.222656 529.160156 77 C 526.367188 78.097656 523.917969 79.714844 521.8125 81.847656 C 520.371094 83.300781 519.070312 84.863281 517.910156 86.539062 C 516.933594 87.976562 515.839844 89.359375 514.84375 90.800781 C 514.378906 91.472656 513.804688 92.085938 513.546875 92.894531 C 513.476562 93.113281 513.230469 93.222656 513.035156 93.347656 Z M 512.785156 93.261719 " fill-opacity="1" fill-rule="nonzero"/></g></g></g></g></svg>