<svg xmlns="http://www.w3.org/2000/svg" xmlns:xlink="http://www.w3.org/1999/xlink" width="1200" zoomAndPan="magnify" viewBox="0 0 900 299.999988" height="400" preserveAspectRatio="xMidYMid meet" version="1.0"><defs><g/><clipPath id="cab66eed15"><path d="M 144.488281 78.855469 L 338.546875 78.855469 L 338.546875 272.914062 L 144.488281 272.914062 Z M 144.488281 78.855469 " clip-rule="nonzero"/></clipPath><clipPath id="4c197bb182"><path d="M 199.238281 78.855469 L 283.796875 78.855469 C 298.316406 78.855469 312.242188 84.625 322.511719 94.890625 C 332.777344 105.160156 338.546875 119.085938 338.546875 133.605469 L 338.546875 218.164062 C 338.546875 232.683594 332.777344 246.613281 322.511719 256.878906 C 312.242188 267.148438 298.316406 272.914062 283.796875 272.914062 L 199.238281 272.914062 C 184.714844 272.914062 170.789062 267.148438 160.523438 256.878906 C 150.253906 246.613281 144.488281 232.683594 144.488281 218.164062 L 144.488281 133.605469 C 144.488281 119.085938 150.253906 105.160156 160.523438 94.890625 C 170.789062 84.625 184.714844 78.855469 199.238281 78.855469 Z M 199.238281 78.855469 " clip-rule="nonzero"/></clipPath><clipPath id="bd304484f5"><path d="M 0.488281 0.855469 L 194.546875 0.855469 L 194.546875 194.914062 L 0.488281 194.914062 Z M 0.488281 0.855469 " clip-rule="nonzero"/></clipPath><clipPath id="432b48bcd2"><path d="M 55.238281 0.855469 L 139.796875 0.855469 C 154.316406 0.855469 168.242188 6.625 178.511719 16.890625 C 188.777344 27.160156 194.546875 41.085938 194.546875 55.605469 L 194.546875 140.164062 C 194.546875 154.683594 188.777344 168.613281 178.511719 178.878906 C 168.242188 189.148438 154.316406 194.914062 139.796875 194.914062 L 55.238281 194.914062 C 40.714844 194.914062 26.789062 189.148438 16.523438 178.878906 C 6.253906 168.613281 0.488281 154.683594 0.488281 140.164062 L 0.488281 55.605469 C 0.488281 41.085938 6.253906 27.160156 16.523438 16.890625 C 26.789062 6.625 40.714844 0.855469 55.238281 0.855469 Z M 55.238281 0.855469 " clip-rule="nonzero"/></clipPath><clipPath id="ef4b02023f"><rect x="0" width="195" y="0" height="195"/></clipPath><clipPath id="58a8ba4e64"><path d="M 189.519531 123.890625 L 293.511719 123.890625 L 293.511719 227.878906 L 189.519531 227.878906 Z M 189.519531 123.890625 " clip-rule="nonzero"/></clipPath><clipPath id="8db4904fae"><path d="M 218.019531 123.890625 L 265.011719 123.890625 C 280.75 123.890625 293.511719 136.648438 293.511719 152.390625 L 293.511719 199.378906 C 293.511719 215.121094 280.75 227.878906 265.011719 227.878906 L 218.019531 227.878906 C 202.28125 227.878906 189.519531 215.121094 189.519531 199.378906 L 189.519531 152.390625 C 189.519531 136.648438 202.28125 123.890625 218.019531 123.890625 Z M 218.019531 123.890625 " clip-rule="nonzero"/></clipPath><clipPath id="30b07bb266"><path d="M 0.519531 0.890625 L 104.511719 0.890625 L 104.511719 104.878906 L 0.519531 104.878906 Z M 0.519531 0.890625 " clip-rule="nonzero"/></clipPath><clipPath id="b1f5172d1b"><path d="M 29.019531 0.890625 L 76.011719 0.890625 C 91.75 0.890625 104.511719 13.648438 104.511719 29.390625 L 104.511719 76.378906 C 104.511719 92.121094 91.75 104.878906 76.011719 104.878906 L 29.019531 104.878906 C 13.28125 104.878906 0.519531 92.121094 0.519531 76.378906 L 0.519531 29.390625 C 0.519531 13.648438 13.28125 0.890625 29.019531 0.890625 Z M 29.019531 0.890625 " clip-rule="nonzero"/></clipPath><clipPath id="76286d3d68"><rect x="0" width="105" y="0" height="105"/></clipPath><clipPath id="90fe7f4c86"><path d="M 150 86 L 286 86 L 286 221 L 150 221 Z M 150 86 " clip-rule="nonzero"/></clipPath><clipPath id="b26048cf71"><path d="M 150.875 183.261719 L 247.78125 86.355469 L 285.3125 123.886719 L 188.40625 220.792969 Z M 150.875 183.261719 " clip-rule="nonzero"/></clipPath><clipPath id="27c512a084"><path d="M 0.71875 0.160156 L 135.359375 0.160156 L 135.359375 134.800781 L 0.71875 134.800781 Z M 0.71875 0.160156 " clip-rule="nonzero"/></clipPath><clipPath id="4870f75f5c"><path d="M 0.875 97.261719 L 97.78125 0.355469 L 135.3125 37.886719 L 38.40625 134.792969 Z M 0.875 97.261719 " clip-rule="nonzero"/></clipPath><clipPath id="6ea609a39e"><rect x="0" width="136" y="0" height="135"/></clipPath><clipPath id="f4e47b9f69"><path d="M 71 6 L 280 6 L 280 215 L 71 215 Z M 71 6 " clip-rule="nonzero"/></clipPath><clipPath id="0986756bb6"><path d="M 71.300781 152.824219 L 217.875 6.25 L 279.28125 67.65625 L 132.707031 214.230469 Z M 71.300781 152.824219 " clip-rule="nonzero"/></clipPath><clipPath id="9aed22d3ad"><path d="M 0.28125 0.238281 L 208.359375 0.238281 L 208.359375 208.320312 L 0.28125 208.320312 Z M 0.28125 0.238281 " clip-rule="nonzero"/></clipPath><clipPath id="00cab1e192"><path d="M 0.300781 146.824219 L 146.875 0.25 L 208.28125 61.65625 L 61.707031 208.230469 Z M 0.300781 146.824219 " clip-rule="nonzero"/></clipPath><clipPath id="63ae68bad5"><rect x="0" width="209" y="0" height="209"/></clipPath><clipPath id="b134f06e94"><path d="M 204.121094 31.339844 L 233.375 31.339844 L 233.375 95.441406 L 204.121094 95.441406 Z M 204.121094 31.339844 " clip-rule="nonzero"/></clipPath><clipPath id="20649c4e93"><path d="M 218.75 31.339844 C 222.628906 31.339844 226.347656 32.878906 229.089844 35.621094 C 231.832031 38.363281 233.375 42.085938 233.375 45.964844 L 233.375 80.742188 C 233.375 84.621094 231.832031 88.34375 229.089844 91.085938 C 226.347656 93.828125 222.628906 95.371094 218.75 95.371094 C 214.871094 95.371094 211.148438 93.828125 208.40625 91.085938 C 205.664062 88.34375 204.121094 84.621094 204.121094 80.742188 L 204.121094 45.964844 C 204.121094 42.085938 205.664062 38.363281 208.40625 35.621094 C 211.148438 32.878906 214.871094 31.339844 218.75 31.339844 Z M 218.75 31.339844 " clip-rule="nonzero"/></clipPath><clipPath id="b728fc56cd"><path d="M 0.121094 0.339844 L 29.375 0.339844 L 29.375 64.441406 L 0.121094 64.441406 Z M 0.121094 0.339844 " clip-rule="nonzero"/></clipPath><clipPath id="7c9d690588"><path d="M 14.75 0.339844 C 18.628906 0.339844 22.347656 1.878906 25.089844 4.621094 C 27.832031 7.363281 29.375 11.085938 29.375 14.964844 L 29.375 49.742188 C 29.375 53.621094 27.832031 57.34375 25.089844 60.085938 C 22.347656 62.828125 18.628906 64.371094 14.75 64.371094 C 10.871094 64.371094 7.148438 62.828125 4.40625 60.085938 C 1.664062 57.34375 0.121094 53.621094 0.121094 49.742188 L 0.121094 14.964844 C 0.121094 11.085938 1.664062 7.363281 4.40625 4.621094 C 7.148438 1.878906 10.871094 0.339844 14.75 0.339844 Z M 14.75 0.339844 " clip-rule="nonzero"/></clipPath><clipPath id="af320c23ae"><rect x="0" width="30" y="0" height="65"/></clipPath><clipPath id="aecead6dd4"><path d="M 103 40 L 179 40 L 179 116 L 103 116 Z M 103 40 " clip-rule="nonzero"/></clipPath><clipPath id="44421abe58"><path d="M 97.382812 55.132812 L 118.066406 34.449219 L 184.644531 101.027344 L 163.960938 121.710938 Z M 97.382812 55.132812 " clip-rule="nonzero"/></clipPath><clipPath id="12028a991b"><path d="M 107.726562 44.789062 C 110.46875 42.046875 114.1875 40.507812 118.066406 40.507812 C 121.945312 40.507812 125.667969 42.046875 128.410156 44.789062 L 174.296875 90.679688 C 177.042969 93.421875 178.582031 97.140625 178.582031 101.019531 C 178.582031 104.898438 177.042969 108.621094 174.296875 111.363281 C 171.554688 114.105469 167.835938 115.648438 163.957031 115.648438 C 160.078125 115.648438 156.355469 114.105469 153.613281 111.363281 L 107.726562 65.476562 C 104.980469 62.730469 103.441406 59.011719 103.441406 55.132812 C 103.441406 51.253906 104.980469 47.53125 107.726562 44.789062 Z M 107.726562 44.789062 " clip-rule="nonzero"/></clipPath><clipPath id="dc341490d0"><path d="M 0.441406 0.320312 L 75.800781 0.320312 L 75.800781 75.679688 L 0.441406 75.679688 Z M 0.441406 0.320312 " clip-rule="nonzero"/></clipPath><clipPath id="2af61f46d2"><path d="M -5.617188 15.132812 L 15.066406 -5.550781 L 81.644531 61.027344 L 60.960938 81.710938 Z M -5.617188 15.132812 " clip-rule="nonzero"/></clipPath><clipPath id="79d3e01239"><path d="M 4.726562 4.789062 C 7.46875 2.046875 11.1875 0.507812 15.066406 0.507812 C 18.945312 0.507812 22.667969 2.046875 25.410156 4.789062 L 71.296875 50.679688 C 74.042969 53.421875 75.582031 57.140625 75.582031 61.019531 C 75.582031 64.898438 74.042969 68.621094 71.296875 71.363281 C 68.554688 74.105469 64.835938 75.648438 60.957031 75.648438 C 57.078125 75.648438 53.355469 74.105469 50.613281 71.363281 L 4.726562 25.476562 C 1.980469 22.730469 0.441406 19.011719 0.441406 15.132812 C 0.441406 11.253906 1.980469 7.53125 4.726562 4.789062 Z M 4.726562 4.789062 " clip-rule="nonzero"/></clipPath><clipPath id="c79c5d0c8c"><rect x="0" width="76" y="0" height="76"/></clipPath><clipPath id="84979aa520"><path d="M 92.960938 133.148438 L 157 133.148438 L 157 162.402344 L 92.960938 162.402344 Z M 92.960938 133.148438 " clip-rule="nonzero"/></clipPath><clipPath id="b33b4e9be5"><path d="M 92.960938 147.777344 C 92.960938 143.898438 94.5 140.175781 97.242188 137.433594 C 99.984375 134.691406 103.707031 133.148438 107.585938 133.148438 L 142.363281 133.148438 C 146.242188 133.148438 149.964844 134.691406 152.707031 137.433594 C 155.449219 140.175781 156.988281 143.898438 156.988281 147.777344 C 156.988281 151.65625 155.449219 155.375 152.707031 158.117188 C 149.964844 160.863281 146.242188 162.402344 142.363281 162.402344 L 107.585938 162.402344 C 103.707031 162.402344 99.984375 160.863281 97.242188 158.117188 C 94.5 155.375 92.960938 151.65625 92.960938 147.777344 Z M 92.960938 147.777344 " clip-rule="nonzero"/></clipPath><clipPath id="66ce923b59"><path d="M 0.960938 0.148438 L 65 0.148438 L 65 29.402344 L 0.960938 29.402344 Z M 0.960938 0.148438 " clip-rule="nonzero"/></clipPath><clipPath id="d38259f33e"><path d="M 0.960938 14.777344 C 0.960938 10.898438 2.5 7.175781 5.242188 4.433594 C 7.984375 1.691406 11.707031 0.148438 15.585938 0.148438 L 50.363281 0.148438 C 54.242188 0.148438 57.964844 1.691406 60.707031 4.433594 C 63.449219 7.175781 64.988281 10.898438 64.988281 14.777344 C 64.988281 18.65625 63.449219 22.375 60.707031 25.117188 C 57.964844 27.863281 54.242188 29.402344 50.363281 29.402344 L 15.585938 29.402344 C 11.707031 29.402344 7.984375 27.863281 5.242188 25.117188 C 2.5 22.375 0.960938 18.65625 0.960938 14.777344 Z M 0.960938 14.777344 " clip-rule="nonzero"/></clipPath><clipPath id="2e7d7367b6"><rect x="0" width="65" y="0" height="30"/></clipPath><clipPath id="2013ffb68b"><rect x="0" width="427" y="0" height="179"/></clipPath></defs><g clip-path="url(#cab66eed15)"><g clip-path="url(#4c197bb182)"><g transform="matrix(1, 0, 0, 1, 144, 78)"><g clip-path="url(#ef4b02023f)"><g clip-path="url(#bd304484f5)"><g clip-path="url(#432b48bcd2)"><path fill="#1a2e38" d="M 0.488281 0.855469 L 194.546875 0.855469 L 194.546875 194.914062 L 0.488281 194.914062 Z M 0.488281 0.855469 " fill-opacity="1" fill-rule="nonzero"/></g></g></g></g></g></g><g clip-path="url(#58a8ba4e64)"><g clip-path="url(#8db4904fae)"><g transform="matrix(1, 0, 0, 1, 189, 123)"><g clip-path="url(#76286d3d68)"><g clip-path="url(#30b07bb266)"><g clip-path="url(#b1f5172d1b)"><path fill="#ffffff" d="M 0.519531 0.890625 L 104.511719 0.890625 L 104.511719 104.878906 L 0.519531 104.878906 Z M 0.519531 0.890625 " fill-opacity="1" fill-rule="nonzero"/></g></g></g></g></g></g><g clip-path="url(#90fe7f4c86)"><g clip-path="url(#b26048cf71)"><g transform="matrix(1, 0, 0, 1, 150, 86)"><g clip-path="url(#6ea609a39e)"><g clip-path="url(#27c512a084)"><g clip-path="url(#4870f75f5c)"><path fill="#1a2e38" d="M 0.875 97.261719 L 97.78125 0.355469 L 135.3125 37.886719 L 38.40625 134.792969 Z M 0.875 97.261719 " fill-opacity="1" fill-rule="nonzero"/></g></g></g></g></g></g><g clip-path="url(#f4e47b9f69)"><g clip-path="url(#0986756bb6)"><g transform="matrix(1, 0, 0, 1, 71, 6)"><g clip-path="url(#63ae68bad5)"><g clip-path="url(#9aed22d3ad)"><g clip-path="url(#00cab1e192)"><path fill="#ffffff" d="M 0.300781 146.824219 L 146.859375 0.265625 L 208.265625 61.671875 L 61.707031 208.230469 Z M 0.300781 146.824219 " fill-opacity="1" fill-rule="nonzero"/></g></g></g></g></g></g><g clip-path="url(#b134f06e94)"><g clip-path="url(#20649c4e93)"><g transform="matrix(1, 0, 0, 1, 204, 31)"><g clip-path="url(#af320c23ae)"><g clip-path="url(#b728fc56cd)"><g clip-path="url(#7c9d690588)"><path fill="#1a2e38" d="M 0.121094 0.339844 L 29.375 0.339844 L 29.375 64.328125 L 0.121094 64.328125 Z M 0.121094 0.339844 " fill-opacity="1" fill-rule="nonzero"/></g></g></g></g></g></g><g clip-path="url(#aecead6dd4)"><g clip-path="url(#44421abe58)"><g clip-path="url(#12028a991b)"><g transform="matrix(1, 0, 0, 1, 103, 40)"><g clip-path="url(#c79c5d0c8c)"><g clip-path="url(#dc341490d0)"><g clip-path="url(#2af61f46d2)"><g clip-path="url(#79d3e01239)"><path fill="#1a2e38" d="M -5.617188 15.132812 L 15.066406 -5.550781 L 81.644531 61.027344 L 60.960938 81.710938 Z M -5.617188 15.132812 " fill-opacity="1" fill-rule="nonzero"/></g></g></g></g></g></g></g></g><g clip-path="url(#84979aa520)"><g clip-path="url(#b33b4e9be5)"><g transform="matrix(1, 0, 0, 1, 92, 133)"><g clip-path="url(#2e7d7367b6)"><g clip-path="url(#66ce923b59)"><g clip-path="url(#d38259f33e)"><path fill="#1a2e38" d="M 0.960938 29.402344 L 0.960938 0.148438 L 64.949219 0.148438 L 64.949219 29.402344 Z M 0.960938 29.402344 " fill-opacity="1" fill-rule="nonzero"/></g></g></g></g></g></g><g transform="matrix(1, 0, 0, 1, 345, 112)"><g clip-path="url(#2013ffb68b)"><g fill="#1a2e38" fill-opacity="1"><g transform="translate(0.139502, 133.695058)"><g><path d="M 53.703125 0 L 35.03125 -33.875 L 29.796875 -33.875 L 29.796875 0 L 7.921875 0 L 7.921875 -89.75 L 44.625 -89.75 C 51.695312 -89.75 57.722656 -88.515625 62.703125 -86.046875 C 67.691406 -83.578125 71.421875 -80.1875 73.890625 -75.875 C 76.367188 -71.570312 77.609375 -66.78125 77.609375 -61.5 C 77.609375 -55.53125 75.925781 -50.203125 72.5625 -45.515625 C 69.195312 -40.828125 64.234375 -37.503906 57.671875 -35.546875 L 78.375 0 Z M 29.796875 -49.359375 L 43.34375 -49.359375 C 47.351562 -49.359375 50.359375 -50.335938 52.359375 -52.296875 C 54.359375 -54.253906 55.359375 -57.023438 55.359375 -60.609375 C 55.359375 -64.015625 54.359375 -66.695312 52.359375 -68.65625 C 50.359375 -70.613281 47.351562 -71.59375 43.34375 -71.59375 L 29.796875 -71.59375 Z M 29.796875 -49.359375 "/></g></g></g><g fill="#1a2e38" fill-opacity="1"><g transform="translate(73.522376, 133.695058)"><g><path d="M 29.796875 -89.75 L 29.796875 0 L 7.921875 0 L 7.921875 -89.75 Z M 29.796875 -89.75 "/></g></g></g><g fill="#1a2e38" fill-opacity="1"><g transform="translate(101.263559, 133.695058)"><g><path d="M 76.328125 -60.859375 C 76.328125 -55.660156 75.132812 -50.90625 72.75 -46.59375 C 70.363281 -42.289062 66.695312 -38.816406 61.75 -36.171875 C 56.8125 -33.535156 50.675781 -32.21875 43.34375 -32.21875 L 29.796875 -32.21875 L 29.796875 0 L 7.921875 0 L 7.921875 -89.75 L 43.34375 -89.75 C 50.5 -89.75 56.550781 -88.515625 61.5 -86.046875 C 66.445312 -83.578125 70.15625 -80.164062 72.625 -75.8125 C 75.09375 -71.46875 76.328125 -66.484375 76.328125 -60.859375 Z M 41.6875 -49.609375 C 45.863281 -49.609375 48.972656 -50.585938 51.015625 -52.546875 C 53.054688 -54.503906 54.078125 -57.273438 54.078125 -60.859375 C 54.078125 -64.441406 53.054688 -67.210938 51.015625 -69.171875 C 48.972656 -71.128906 45.863281 -72.109375 41.6875 -72.109375 L 29.796875 -72.109375 L 29.796875 -49.609375 Z M 41.6875 -49.609375 "/></g></g></g><g fill="#1a2e38" fill-opacity="1"><g transform="translate(171.066686, 133.695058)"><g><path d="M 76.328125 -60.859375 C 76.328125 -55.660156 75.132812 -50.90625 72.75 -46.59375 C 70.363281 -42.289062 66.695312 -38.816406 61.75 -36.171875 C 56.8125 -33.535156 50.675781 -32.21875 43.34375 -32.21875 L 29.796875 -32.21875 L 29.796875 0 L 7.921875 0 L 7.921875 -89.75 L 43.34375 -89.75 C 50.5 -89.75 56.550781 -88.515625 61.5 -86.046875 C 66.445312 -83.578125 70.15625 -80.164062 72.625 -75.8125 C 75.09375 -71.46875 76.328125 -66.484375 76.328125 -60.859375 Z M 41.6875 -49.609375 C 45.863281 -49.609375 48.972656 -50.585938 51.015625 -52.546875 C 53.054688 -54.503906 54.078125 -57.273438 54.078125 -60.859375 C 54.078125 -64.441406 53.054688 -67.210938 51.015625 -69.171875 C 48.972656 -71.128906 45.863281 -72.109375 41.6875 -72.109375 L 29.796875 -72.109375 L 29.796875 -49.609375 Z M 41.6875 -49.609375 "/></g></g></g><g fill="#1a2e38" fill-opacity="1"><g transform="translate(240.869813, 133.695058)"><g><path d="M 29.796875 -16.875 L 58.4375 -16.875 L 58.4375 0 L 7.921875 0 L 7.921875 -89.75 L 29.796875 -89.75 Z M 29.796875 -16.875 "/></g></g></g><g fill="#1a2e38" fill-opacity="1"><g transform="translate(291.879307, 133.695058)"><g><path d="M 29.796875 -72.234375 L 29.796875 -54.078125 L 59.078125 -54.078125 L 59.078125 -37.203125 L 29.796875 -37.203125 L 29.796875 -17.515625 L 62.90625 -17.515625 L 62.90625 0 L 7.921875 0 L 7.921875 -89.75 L 62.90625 -89.75 L 62.90625 -72.234375 Z M 29.796875 -72.234375 "/></g></g></g><g fill="#1a2e38" fill-opacity="1"><g transform="translate(351.071061, 133.695058)"><g><path d="M 40.40625 0.890625 C 33.84375 0.890625 27.957031 -0.171875 22.75 -2.296875 C 17.550781 -4.429688 13.394531 -7.585938 10.28125 -11.765625 C 7.175781 -15.941406 5.539062 -20.96875 5.375 -26.84375 L 28.640625 -26.84375 C 28.984375 -23.519531 30.132812 -20.984375 32.09375 -19.234375 C 34.050781 -17.492188 36.609375 -16.625 39.765625 -16.625 C 43.003906 -16.625 45.5625 -17.367188 47.4375 -18.859375 C 49.3125 -20.347656 50.25 -22.414062 50.25 -25.0625 C 50.25 -27.28125 49.503906 -29.113281 48.015625 -30.5625 C 46.523438 -32.007812 44.691406 -33.203125 42.515625 -34.140625 C 40.335938 -35.078125 37.25 -36.140625 33.25 -37.328125 C 27.445312 -39.117188 22.710938 -40.910156 19.046875 -42.703125 C 15.378906 -44.492188 12.222656 -47.132812 9.578125 -50.625 C 6.941406 -54.125 5.625 -58.6875 5.625 -64.3125 C 5.625 -72.664062 8.648438 -79.207031 14.703125 -83.9375 C 20.753906 -88.664062 28.640625 -91.03125 38.359375 -91.03125 C 48.242188 -91.03125 56.210938 -88.664062 62.265625 -83.9375 C 68.316406 -79.207031 71.554688 -72.625 71.984375 -64.1875 L 48.328125 -64.1875 C 48.160156 -67.082031 47.09375 -69.359375 45.125 -71.015625 C 43.164062 -72.679688 40.65625 -73.515625 37.59375 -73.515625 C 34.945312 -73.515625 32.8125 -72.8125 31.1875 -71.40625 C 29.570312 -70 28.765625 -67.976562 28.765625 -65.34375 C 28.765625 -62.4375 30.128906 -60.171875 32.859375 -58.546875 C 35.585938 -56.929688 39.847656 -55.1875 45.640625 -53.3125 C 51.441406 -51.351562 56.148438 -49.476562 59.765625 -47.6875 C 63.390625 -45.894531 66.523438 -43.296875 69.171875 -39.890625 C 71.816406 -36.484375 73.140625 -32.09375 73.140625 -26.71875 C 73.140625 -21.601562 71.835938 -16.957031 69.234375 -12.78125 C 66.640625 -8.601562 62.867188 -5.28125 57.921875 -2.8125 C 52.972656 -0.34375 47.132812 0.890625 40.40625 0.890625 Z M 40.40625 0.890625 "/></g></g></g></g></g></svg>